HIERARCHY
ROOT RootJoint
{
    OFFSET   0.000000   0.000000   0.000000
    CHANNELS 6 Xposition Yposition Zposition Xrotation Yrotation Zrotation
    JOINT pelvis_lowerback
    {
        OFFSET   0.000000   0.093605   0.000000
        CHANNELS 3 Xrotation Yrotation Zrotation
        JOINT lowerback_torso
        {
            OFFSET   0.000000   0.100000   0.000000
            CHANNELS 3 Xrotation Yrotation Zrotation
            JOINT torso_head
            {
                OFFSET   0.000000   0.282350   0.000000
                CHANNELS 3 Xrotation Yrotation Zrotation
                End Site
                {
                    OFFSET   0.000000   0.192650   0.000000
                }
            }
            JOINT rTorso_Clavicle
            {
                OFFSET  -0.001000   0.157500   0.000000
                CHANNELS 3 Xrotation Yrotation Zrotation
                JOINT rShoulder
                {
                    OFFSET  -0.117647   0.000000   0.000000
                    CHANNELS 3 Xrotation Yrotation Zrotation
                    JOINT rElbow
                    {
                        OFFSET  -0.245000   0.000000   0.000000
                        CHANNELS 3 Xrotation Yrotation Zrotation
                        JOINT rWrist
                        {
                            OFFSET  -0.240000   0.000000   0.000000
                            CHANNELS 3 Xrotation Yrotation Zrotation
                            End Site
                            {
                                OFFSET  -0.116353  -0.002500   0.000000
                            }
                        }
                    }
                }
            }
            JOINT lTorso_Clavicle
            {
                OFFSET   0.001000   0.157500   0.000000
                CHANNELS 3 Xrotation Yrotation Zrotation
                JOINT lShoulder
                {
                    OFFSET   0.117647   0.000000   0.000000
                    CHANNELS 3 Xrotation Yrotation Zrotation
                    JOINT lElbow
                    {
                        OFFSET   0.245000   0.000000   0.000000
                        CHANNELS 3 Xrotation Yrotation Zrotation
                        JOINT lWrist
                        {
                            OFFSET   0.240000   0.000000   0.000000
                            CHANNELS 3 Xrotation Yrotation Zrotation
                            End Site
                            {
                                OFFSET   0.116353  -0.002500   0.000000
                            }
                        }
                    }
                }
            }
        }
    }
    JOINT rHip
    {
        OFFSET  -0.100000  -0.051395   0.000000
        CHANNELS 3 Xrotation Yrotation Zrotation
        JOINT rKnee
        {
            OFFSET   0.000000  -0.410000   0.000000
            CHANNELS 3 Xrotation Yrotation Zrotation
            JOINT rAnkle
            {
                OFFSET   0.000000  -0.390000   0.000000
                CHANNELS 3 Xrotation Yrotation Zrotation
                JOINT rToeJoint
                {
                    OFFSET   0.000000  -0.050000   0.130000
                    CHANNELS 3 Xrotation Yrotation Zrotation
                    End Site
                    {
                        OFFSET  -0.010000   0.002000   0.060000
                    }
                }
            }
        }
    }
    JOINT lHip
    {
        OFFSET   0.100000  -0.051395   0.000000
        CHANNELS 3 Xrotation Yrotation Zrotation
        JOINT lKnee
        {
            OFFSET   0.000000  -0.410000   0.000000
            CHANNELS 3 Xrotation Yrotation Zrotation
            JOINT lAnkle
            {
                OFFSET   0.000000  -0.390000   0.000000
                CHANNELS 3 Xrotation Yrotation Zrotation
                JOINT lToeJoint
                {
                    OFFSET   0.000000  -0.050000   0.130000
                    CHANNELS 3 Xrotation Yrotation Zrotation
                    End Site
                    {
                        OFFSET   0.010000   0.002000   0.060000
                    }
                }
            }
        }
    }
}
MOTION
Frames: 14
Frame Time:   0.008333
 -3.192072   0.582003   4.377655 -129.519853  55.319809 131.625335  46.810988   2.043930  -0.426223  -1.575608   1.265693  -0.313854  -1.745674  -0.139967  -4.522981   0.414149  19.419182 -10.100111  11.398005  24.956936  23.968293   0.042587  72.181355  -0.044443  13.298365   4.156670  -8.925772  -0.206610 -14.403756   8.134890  21.576455 -17.996426 -21.850914   0.036664 -80.929723   0.031344  11.185463  -0.022189 -26.872265 -45.129477  -5.718139 -16.193580 101.869996  -0.000052  -0.000121 -36.922416  -4.479983   5.673330  -0.082530   0.000006   0.000006 -43.811576   2.068239  17.660542 106.469503   0.000308  -0.000062 -45.239900   0.478925  -0.043807  -1.311788  -0.000143  -0.000200
 -3.192923   0.581771   4.377218 -129.401273  55.310753 131.425020  46.612741   2.075203  -0.383201  -1.811447   1.189025  -0.174702  -1.771986  -0.041307  -4.515556   0.474732  19.334601  -9.929507  11.255934  25.080062  24.124013   0.040659  71.648149  -0.043178  13.396242   4.214334  -8.978584  -0.326329 -14.604418   8.067664  21.331363 -18.319824 -21.884727   0.037305 -80.631761   0.031860  10.912368  -0.249181 -25.157933 -45.114898  -5.725334 -16.131972 101.902093  -0.000038  -0.000108 -37.384602  -4.439335   5.674037   0.001266   0.000002   0.000051 -43.857363   2.109096  17.779775 106.565230   0.000333  -0.000066 -45.447194   0.449370  -0.017440  -1.316296  -0.000116  -0.000161
 -3.193957   0.581802   4.376968 -129.332531  55.321793 131.276608  46.446539   2.110365  -0.348202  -2.025705   1.117751  -0.052626  -1.805626   0.055179  -4.510222   0.539600  19.252389  -9.756667  11.127450  25.190054  24.278399   0.037236  71.138970  -0.040384  13.480952   4.210116  -9.031114  -0.436580 -14.800879   7.981917  21.098915 -18.632120 -21.929298   0.035857 -80.348751   0.030604  10.682637  -0.460695 -23.483916 -45.123095  -5.739428 -16.059320 101.883229  -0.000033  -0.000084 -37.832476  -4.402101   5.675100   0.057388  -0.000009   0.000080 -43.928078   2.154949  17.887197 106.601007   0.000299  -0.000059 -45.644399   0.423044   0.004812  -1.305760  -0.000087  -0.000126
 -3.195179   0.581894   4.376846 -129.272590  55.390741 131.181298  46.285502   2.145378  -0.353635  -2.220109   1.052902   0.035918  -1.835536   0.145623  -4.507777   0.604951  19.174307  -9.596445  11.010332  25.293459  24.425878   0.033119  70.664140  -0.036717  13.560351   4.198502  -9.065225  -0.535499 -14.982179   7.898360  20.884181 -18.926096 -21.976830   0.033125 -80.086654   0.028229  10.705828  -0.785588 -21.871628 -45.103394  -5.800731 -15.980502 101.603042   0.000133  -0.000079 -38.295685  -4.374055   5.677229   0.084095  -0.000032   0.000077 -44.042893   2.249166  17.962395 106.601144   0.000239  -0.000047 -45.834857   0.404286   0.015334  -1.296782  -0.000064  -0.000099
 -3.196434   0.582170   4.376917 -129.253424  55.394998 131.099866  46.182020   2.171576  -0.326266  -2.371616   0.986654   0.134165  -1.861247   0.229775  -4.504579   0.668759  19.100862  -9.443299  10.902867  25.387972  24.564830   0.028747  70.218405  -0.032669  13.635171   4.178938  -9.087769  -0.625890 -15.155209   7.812949  20.683672 -19.204209 -22.025748   0.029707 -79.842485   0.025268  10.484004  -1.004809 -20.349627 -45.153416  -5.810404 -15.906805 101.575229   0.000103  -0.000069 -38.682179  -4.340480   5.680588   0.157294  -0.000051   0.000131 -44.125300   2.292515  18.042076 106.569254   0.000162  -0.000035 -46.016620   0.381592   0.033978  -1.288968  -0.000047  -0.000076
 -3.197785   0.582593   4.377134 -129.263134  55.396567 131.047889  46.101131   2.196253  -0.301595  -2.496439   0.924109   0.226183  -1.882965   0.308206  -4.501466   0.732014  19.031677  -9.296615  10.804416  25.476416  24.697773   0.024417  69.801833  -0.028548  13.706547   4.158552  -9.098003  -0.706970 -15.316386   7.728144  20.498183 -19.465773 -22.075994   0.026055 -79.615272   0.022122  10.294492  -1.239106 -18.904826 -45.197500  -5.837376 -15.831528 101.508358   0.000075  -0.000077 -39.056097  -4.312389   5.684500   0.197801  -0.000060   0.000145 -44.214377   2.332827  18.118964 106.503184   0.000066  -0.000029 -46.191509   0.360991   0.050816  -1.281607  -0.000034  -0.000057
 -3.199218   0.583115   4.377481 -129.296116  55.398006 131.026457  46.037878   2.219023  -0.282833  -2.599410   0.865551   0.309451  -1.900909   0.381209  -4.498866   0.794198  18.966307  -9.158315  10.714275  25.559210  24.824243   0.020352  69.413139  -0.024571  13.775094   4.141192  -9.096900  -0.779684 -15.465494   7.647021  20.326942 -19.710642 -22.126089   0.022479 -79.403907   0.019059  10.133778  -1.484404 -17.533477 -45.242853  -5.870970 -15.758520 101.413522   0.000051  -0.000103 -39.410278  -4.287181   5.689072   0.233721  -0.000068   0.000153 -44.311576   2.375132  18.188228 106.410134  -0.000040  -0.000029 -46.359585   0.342598   0.065229  -1.275259  -0.000024  -0.000041
 -3.200612   0.583607   4.377941 -129.355296  55.403009 131.054147  45.974689   2.247443  -0.269830  -2.723288   0.815398   0.359412  -1.981702   0.452770  -4.484360   0.803718  18.900252  -8.932749  10.581954  25.618372  24.985786   0.018190  68.930098  -0.022878  13.873195   4.175987  -9.100220  -0.858922 -15.634506   7.549128  20.116313 -19.946933 -22.223941   0.021178 -79.092093   0.018232   9.986054  -1.778032 -16.250189 -45.271072  -5.897229 -15.676944 101.353621   0.000031  -0.000124 -39.763175  -4.214479   5.697236   0.267169  -0.000076   0.000178 -44.424842   2.427337  18.250362 106.309484  -0.000136  -0.000047 -46.507644   0.321876   0.049039  -1.264041  -0.000011  -0.000025
 -3.201969   0.584046   4.378512 -129.436134  55.395059 131.118391  45.914130   2.273215  -0.259713  -2.846180   0.766825   0.401011  -2.066646   0.520760  -4.472176   0.812505  18.841582  -8.708260  10.455178  25.672138  25.143001   0.016182  68.470992  -0.021101  13.958433   4.159789  -9.120398  -0.933603 -15.799854   7.445461  19.916196 -20.171038 -22.320993   0.019896 -78.794141   0.017411   9.874166  -2.035138 -15.009046 -45.284384  -5.921019 -15.593862 101.314087   0.000014  -0.000136 -40.094044  -4.145406   5.704265   0.298517  -0.000081   0.000198 -44.545205   2.479544  18.305933 106.209121  -0.000219  -0.000077 -46.647025   0.303427   0.032398  -1.252914  -0.000002  -0.000010
 -3.203295   0.584429   4.379191 -129.532802  55.369948 131.211470  45.858620   2.296186  -0.251019  -2.961274   0.720170   0.437667  -2.147816   0.584405  -4.461287   0.821462  18.788402  -8.495881  10.336250  25.722943  25.291707   0.014270  68.041800  -0.019190  14.038020   4.132848  -9.141585  -1.003046 -15.957199   7.343969  19.728143 -20.382878 -22.414773   0.018527 -78.516117   0.016468   9.785493  -2.284367 -13.817469 -45.288802  -5.942148 -15.512533 101.286339   0.000002  -0.000139 -40.403686  -4.080659   5.710578   0.328646  -0.000085   0.000215 -44.667858   2.529420  18.356357 106.110201  -0.000290  -0.000114 -46.778296   0.286717   0.016204  -1.242694   0.000004   0.000003
 -3.204591   0.584757   4.379978 -129.642061  55.326000 131.329059  45.809464   2.317047  -0.243107  -3.066996   0.675969   0.470769  -2.223850   0.643802  -4.451276   0.830125  18.739724  -8.297013  10.224912  25.770702  25.431134   0.012488  67.641335  -0.017240  14.114102   4.106270  -9.161117  -1.067448 -16.105459   7.246900  19.552047 -20.582048 -22.504396   0.017133 -78.257175   0.015457   9.715554  -2.531718 -12.677115 -45.288481  -5.960407 -15.434787 101.265549  -0.000007  -0.000137 -40.693286  -4.020011   5.716289   0.357141  -0.000088   0.000229 -44.790409   2.576029  18.402758 106.013210  -0.000351  -0.000158 -46.901817   0.271461   0.000716  -1.233329   0.000007   0.000014
 -3.205853   0.585030   4.380870 -129.761927  55.262271 131.468457  45.767030   2.336430  -0.235671  -3.163152   0.634589   0.501139  -2.294623   0.699192  -4.441970   0.838343  18.694916  -8.111287  10.120749  25.815361  25.561504   0.010860  67.267725  -0.015328  14.187172   4.081898  -9.178961  -1.127044 -16.244347   7.154973  19.387497 -20.768588 -22.589595   0.015775 -78.015887   0.014439   9.662181  -2.776444 -11.587114 -45.285910  -5.975736 -15.361698 101.249072  -0.000014  -0.000133 -40.964046  -3.963222   5.721472   0.383808  -0.000091   0.000240 -44.911413   2.618851  18.445951 105.918495  -0.000404  -0.000206 -47.017958   0.257450  -0.013924  -1.224751   0.000009   0.000024
 -3.207082   0.585247   4.381869 -129.891078  55.178111 131.627834  45.731196   2.354822  -0.228550  -3.250028   0.596242   0.529321  -2.360324   0.750833  -4.433272   0.846129  18.653527  -7.937924  10.023364  25.857003  25.683329   0.009393  66.919131  -0.013503  14.257375   4.059680  -9.195238  -1.182074 -16.373927   7.068364  19.233974 -20.942834 -22.670354   0.014493 -77.790893   0.013455   9.623666  -3.016863 -10.545813 -45.282564  -5.988114 -15.293869 101.235425  -0.000018  -0.000127 -41.217144  -3.910054   5.726169   0.408615  -0.000092   0.000247 -45.029916   2.657571  18.486543 105.826324  -0.000448  -0.000255 -47.127089   0.244512  -0.027631  -1.216892   0.000010   0.000031
 -3.208395   0.585683   4.382989 -130.038533  55.015675 131.800125  45.785595   2.293623  -0.186887  -3.339325   0.535237   0.561655  -2.477989   0.749363  -4.483826   0.733452  18.670391  -7.682598   9.769923  25.946098  25.897372   0.010364  66.396711  -0.014806  14.352271   4.062875  -9.150939  -1.245443 -16.471600   6.958746  19.086358 -21.110411 -22.760947   0.013545 -77.494005   0.012858   9.600394  -3.242143  -9.541639 -45.233919  -6.033619 -15.254186 101.140877  -0.000076  -0.000256 -41.470629  -3.919386   5.709965   0.454146  -0.000102   0.000283 -45.095719   2.670736  18.512453 105.686448  -0.000577  -0.000368 -47.173889   0.182995  -0.057872  -1.112165   0.000056   0.000172
